<?xml version="1.0" encoding="iso-8859-1"?>
<!-- Generator: Adobe Illustrator 19.0.0, SVG Export Plug-In . SVG Version: 6.00 Build 0)  -->
<svg version="1.1" id="Layer_1" xmlns="http://www.w3.org/2000/svg" xmlns:xlink="http://www.w3.org/1999/xlink" x="0px" y="0px"
	 viewBox="0 0 503.641 503.641" style="enable-background:new 0 0 503.641 503.641;" xml:space="preserve">
<g transform="translate(1 1)">
	<g>
		<path style="fill:#FFE100;" d="M431.279,124.936c-5.036,0-8.393-3.357-8.393-8.393c-5.036,0-8.393-3.357-8.393-8.393
			c0-5.036,3.357-8.393,8.393-8.393h8.393c5.036,0,8.393,3.357,8.393,8.393v8.393C439.673,121.578,436.315,124.936,431.279,124.936z
			"/>
		<path style="fill:#FFE100;" d="M401.902,116.542H391.83c-5.036,0-8.393-3.357-8.393-8.393c0-5.036,3.357-8.393,8.393-8.393h10.072
			c5.036,0,8.393,3.357,8.393,8.393C410.296,113.185,406.938,116.542,401.902,116.542z M370.846,116.542h-10.072
			c-5.036,0-8.393-3.357-8.393-8.393c0-5.036,3.357-8.393,8.393-8.393h10.072c5.036,0,8.393,3.357,8.393,8.393
			C379.24,113.185,375.043,116.542,370.846,116.542z"/>
		<path style="fill:#FFE100;" d="M339.791,114.864c-1.679,0-2.518,0-4.197-0.839c-5.036-2.518-8.393-5.875-10.911-10.911
			c-2.518-4.197-0.839-9.233,3.357-10.911c4.197-2.518,9.233-0.839,10.911,3.357c0.839,1.679,1.679,2.518,3.357,3.357
			c4.197,2.518,5.875,7.554,3.357,10.911C345.666,113.185,342.309,114.864,339.791,114.864z M330.558,87.165
			c-5.036,0-8.393-3.357-8.393-8.393V67.86c0-5.036,3.357-8.393,8.393-8.393c5.036,0,8.393,3.357,8.393,8.393v10.072
			C338.951,82.968,335.594,87.165,330.558,87.165z M330.558,55.27c-5.036,0-8.393-3.357-8.393-8.393V36.804
			c0-5.036,3.357-8.393,8.393-8.393c5.036,0,8.393,3.357,8.393,8.393v10.072C338.951,51.913,335.594,55.27,330.558,55.27z"/>
		<path style="fill:#FFE100;" d="M330.558,24.214c-5.036,0-8.393-3.357-8.393-8.393c-5.036,0-8.393-3.357-8.393-8.393
			s3.357-8.393,8.393-8.393h8.393c5.036,0,8.393,3.357,8.393,8.393v8.393C338.951,20.857,335.594,24.214,330.558,24.214z"/>
		<path style="fill:#FFE100;" d="M289.43,15.821h-15.948c-5.036,0-8.393-3.357-8.393-8.393s3.357-8.393,8.393-8.393h15.948
			c5.036,0,8.393,3.357,8.393,8.393S294.466,15.821,289.43,15.821z M241.587,15.821H225.64c-5.036,0-8.393-3.357-8.393-8.393
			s3.357-8.393,8.393-8.393h15.948c5.036,0,8.393,3.357,8.393,8.393S245.784,15.821,241.587,15.821z"/>
		<path style="fill:#FFE100;" d="M414.492,502.641c-5.036,0-8.393-3.357-8.393-8.393c0-5.036,3.357-8.393,8.393-8.393l0,0
			c2.518,0,5.036-0.839,6.715-3.357c2.518-3.357,8.393-4.197,11.751-1.679s4.197,8.393,1.679,11.751
			C429.601,499.283,422.047,502.641,414.492,502.641z M381.758,502.641H365.81c-5.036,0-8.393-3.357-8.393-8.393
			c0-5.036,3.357-8.393,8.393-8.393h15.948c5.036,0,8.393,3.357,8.393,8.393C390.151,499.283,385.955,502.641,381.758,502.641z
			 M333.076,502.641h-15.948c-5.036,0-8.393-3.357-8.393-8.393c0-5.036,3.357-8.393,8.393-8.393h15.948
			c5.036,0,8.393,3.357,8.393,8.393C341.469,499.283,337.273,502.641,333.076,502.641z M284.394,502.641h-15.948
			c-5.036,0-8.393-3.357-8.393-8.393c0-5.036,3.357-8.393,8.393-8.393h15.948c5.036,0,8.393,3.357,8.393,8.393
			C292.787,499.283,288.591,502.641,284.394,502.641z M235.712,502.641h-15.948c-5.036,0-8.393-3.357-8.393-8.393
			c0-5.036,3.357-8.393,8.393-8.393h15.948c5.036,0,8.393,3.357,8.393,8.393C244.106,499.283,240.748,502.641,235.712,502.641z
			 M187.03,502.641h-15.948c-5.036,0-8.393-3.357-8.393-8.393c0-5.036,3.357-8.393,8.393-8.393h15.948
			c5.036,0,8.393,3.357,8.393,8.393C195.424,499.283,192.066,502.641,187.03,502.641z M139.187,502.641h-16.787
			c-5.036,0-8.393-3.357-8.393-8.393c0-5.036,3.357-8.393,8.393-8.393h15.948c5.036,0,8.393,3.357,8.393,8.393
			C146.742,499.283,143.384,502.641,139.187,502.641z M90.506,501.801c-0.839,0-1.679,0-2.518,0
			c-7.554-2.518-14.269-8.393-16.787-16.787c-1.679-4.197,0.839-9.233,5.875-10.072c5.036-0.839,9.233,0.839,10.911,5.875
			c0.839,2.518,2.518,5.036,5.875,5.875c4.197,1.679,6.715,5.875,5.875,10.911C97.22,499.283,93.863,501.801,90.506,501.801z
			 M431.279,464.87c-5.036,0-8.393-3.357-8.393-8.393v-15.948c0-5.036,3.357-8.393,8.393-8.393c5.036,0,8.393,3.357,8.393,8.393
			v15.948C439.673,460.673,436.315,464.87,431.279,464.87z M78.755,458.995c-5.036,0-8.393-3.357-8.393-8.393v-15.948
			c0-5.036,3.357-8.393,8.393-8.393s8.393,3.357,8.393,8.393v15.948C87.148,454.798,83.791,458.995,78.755,458.995z
			 M431.279,416.188c-5.036,0-8.393-3.357-8.393-8.393v-15.948c0-5.036,3.357-8.393,8.393-8.393c5.036,0,8.393,3.357,8.393,8.393
			v15.948C439.673,411.991,436.315,416.188,431.279,416.188z M78.755,410.313c-5.036,0-8.393-3.357-8.393-8.393v-15.948
			c0-5.036,3.357-8.393,8.393-8.393s8.393,3.357,8.393,8.393v15.948C87.148,406.116,83.791,410.313,78.755,410.313z
			 M431.279,367.506c-5.036,0-8.393-3.357-8.393-8.393v-15.948c0-5.036,3.357-8.393,8.393-8.393c5.036,0,8.393,3.357,8.393,8.393
			v15.948C439.673,364.149,436.315,367.506,431.279,367.506z M78.755,361.631c-5.036,0-8.393-3.357-8.393-8.393V337.29
			c0-5.036,3.357-8.393,8.393-8.393s8.393,3.357,8.393,8.393v15.948C87.148,358.273,83.791,361.631,78.755,361.631z
			 M431.279,318.824c-5.036,0-8.393-3.357-8.393-8.393v-15.948c0-5.036,3.357-8.393,8.393-8.393c5.036,0,8.393,3.357,8.393,8.393
			v15.948C439.673,315.467,436.315,318.824,431.279,318.824z M78.755,312.949c-5.036,0-8.393-3.357-8.393-8.393v-15.948
			c0-5.036,3.357-8.393,8.393-8.393s8.393,3.357,8.393,8.393v15.948C87.148,309.591,83.791,312.949,78.755,312.949z
			 M431.279,270.982c-5.036,0-8.393-3.357-8.393-8.393v-15.948c0-5.036,3.357-8.393,8.393-8.393c5.036,0,8.393,3.357,8.393,8.393
			v15.948C439.673,266.785,436.315,270.982,431.279,270.982z M78.755,265.106c-5.036,0-8.393-3.357-8.393-8.393v-15.948
			c0-5.036,3.357-8.393,8.393-8.393s8.393,3.357,8.393,8.393v15.948C87.148,260.909,83.791,265.106,78.755,265.106z M431.279,222.3
			c-5.036,0-8.393-3.357-8.393-8.393v-15.948c0-5.036,3.357-8.393,8.393-8.393c5.036,0,8.393,3.357,8.393,8.393v15.948
			C439.673,218.103,436.315,222.3,431.279,222.3z M78.755,216.424c-5.036,0-8.393-3.357-8.393-8.393v-15.948
			c0-5.036,3.357-8.393,8.393-8.393s8.393,3.357,8.393,8.393v15.948C87.148,212.227,83.791,216.424,78.755,216.424z
			 M431.279,173.618c-5.036,0-8.393-3.357-8.393-8.393v-15.948c0-5.036,3.357-8.393,8.393-8.393c5.036,0,8.393,3.357,8.393,8.393
			v15.948C439.673,170.26,436.315,173.618,431.279,173.618z M78.755,167.742c-5.036,0-8.393-3.357-8.393-8.393v-15.948
			c0-5.036,3.357-8.393,8.393-8.393s8.393,3.357,8.393,8.393v15.948C87.148,163.545,83.791,167.742,78.755,167.742z M78.755,119.06
			c-5.036,0-8.393-3.357-8.393-8.393V94.719c0-5.036,3.357-8.393,8.393-8.393s8.393,3.357,8.393,8.393v15.948
			C87.148,115.703,83.791,119.06,78.755,119.06z M78.755,70.378c-5.036,0-8.393-3.357-8.393-8.393V46.037
			c0-5.036,3.357-8.393,8.393-8.393s8.393,3.357,8.393,8.393v15.948C87.148,67.021,83.791,70.378,78.755,70.378z M82.112,22.536
			c-1.679,0-3.357,0-5.036-0.839c-4.197-3.357-5.036-8.393-1.679-11.751C79.594,3.231,87.148-0.966,95.542-0.966
			c5.036,0,8.393,3.357,8.393,8.393s-3.357,8.393-8.393,8.393l0,0c-2.518,0-5.036,1.679-6.715,3.357
			C87.148,21.696,84.63,22.536,82.112,22.536z M192.906,15.821h-15.948c-5.036,0-8.393-3.357-8.393-8.393s3.357-8.393,8.393-8.393
			h15.948c5.036,0,8.393,3.357,8.393,8.393S197.102,15.821,192.906,15.821z M144.224,15.821h-15.948
			c-5.036,0-8.393-3.357-8.393-8.393s3.357-8.393,8.393-8.393h15.948c5.036,0,8.393,3.357,8.393,8.393S149.26,15.821,144.224,15.821
			z"/>
	</g>
	<path style="fill:#FECC00;" d="M422.886,108.149h-83.934c-9.233,0-16.787-7.554-16.787-16.787V7.427L422.886,108.149z"/>
	<path d="M422.886,116.542h-83.934c-14.269,0-25.18-10.911-25.18-25.18V7.427c0-3.357,1.679-6.715,5.036-7.554
		c3.357-1.679,6.715-0.839,9.233,1.679l100.721,100.721c2.518,2.518,3.357,5.875,1.679,9.233
		C429.601,114.864,426.243,116.542,422.886,116.542z M330.558,27.572v63.79c0,5.036,3.357,8.393,8.393,8.393h63.79L330.558,27.572z"
		/>
	<path d="M422.886,124.936c-5.036,0-8.393-3.357-8.393-8.393c-5.036,0-8.393-3.357-8.393-8.393c0-5.036,3.357-8.393,8.393-8.393
		h8.393c5.036,0,8.393,3.357,8.393,8.393v8.393C431.279,121.578,427.922,124.936,422.886,124.936z"/>
	<path d="M393.509,116.542h-10.072c-5.036,0-8.393-3.357-8.393-8.393c0-5.036,3.357-8.393,8.393-8.393h10.072
		c5.036,0,8.393,3.357,8.393,8.393C401.902,113.185,398.545,116.542,393.509,116.542z M362.453,116.542h-10.072
		c-5.036,0-8.393-3.357-8.393-8.393c0-5.036,3.357-8.393,8.393-8.393h10.072c5.036,0,8.393,3.357,8.393,8.393
		C370.846,113.185,366.65,116.542,362.453,116.542z"/>
	<path d="M331.397,114.864c-1.679,0-2.518,0-4.197-0.839c-5.036-2.518-8.393-5.875-10.911-10.911
		c-2.518-4.197-0.839-9.233,3.357-10.911c4.197-2.518,9.233-0.839,10.911,3.357c0.839,1.679,1.679,2.518,3.357,3.357
		c4.197,2.518,5.875,7.554,3.357,10.911C337.273,113.185,333.915,114.864,331.397,114.864z M322.165,87.165
		c-5.036,0-8.393-3.357-8.393-8.393V67.86c0-5.036,3.357-8.393,8.393-8.393s8.393,3.357,8.393,8.393v10.072
		C330.558,82.968,327.201,87.165,322.165,87.165z M322.165,55.27c-5.036,0-8.393-3.357-8.393-8.393V36.804
		c0-5.036,3.357-8.393,8.393-8.393s8.393,3.357,8.393,8.393v10.072C330.558,51.913,327.201,55.27,322.165,55.27z"/>
	<path d="M322.165,24.214c-5.036,0-8.393-3.357-8.393-8.393c-5.036,0-8.393-3.357-8.393-8.393s3.357-8.393,8.393-8.393h8.393
		c5.036,0,8.393,3.357,8.393,8.393v8.393C330.558,20.857,327.201,24.214,322.165,24.214z"/>
	<path d="M281.037,15.821h-15.948c-5.036,0-8.393-3.357-8.393-8.393s3.357-8.393,8.393-8.393h15.948
		c5.036,0,8.393,3.357,8.393,8.393S286.073,15.821,281.037,15.821z M233.194,15.821h-15.948c-5.036,0-8.393-3.357-8.393-8.393
		s3.357-8.393,8.393-8.393h15.948c5.036,0,8.393,3.357,8.393,8.393S237.391,15.821,233.194,15.821z"/>
	<path d="M406.099,502.641c-5.036,0-8.393-3.357-8.393-8.393c0-5.036,3.357-8.393,8.393-8.393l0,0c2.518,0,5.036-0.839,6.715-3.357
		c2.518-3.357,8.393-4.197,11.751-1.679c3.357,2.518,4.197,8.393,1.679,11.751C421.207,499.283,413.653,502.641,406.099,502.641z
		 M373.365,502.641h-15.948c-5.036,0-8.393-3.357-8.393-8.393c0-5.036,3.357-8.393,8.393-8.393h15.948
		c5.036,0,8.393,3.357,8.393,8.393C381.758,499.283,377.561,502.641,373.365,502.641z M324.683,502.641h-15.948
		c-5.036,0-8.393-3.357-8.393-8.393c0-5.036,3.357-8.393,8.393-8.393h15.948c5.036,0,8.393,3.357,8.393,8.393
		C333.076,499.283,328.879,502.641,324.683,502.641z M276.001,502.641h-15.948c-5.036,0-8.393-3.357-8.393-8.393
		c0-5.036,3.357-8.393,8.393-8.393h15.948c5.036,0,8.393,3.357,8.393,8.393C284.394,499.283,280.197,502.641,276.001,502.641z
		 M227.319,502.641h-15.948c-5.036,0-8.393-3.357-8.393-8.393c0-5.036,3.357-8.393,8.393-8.393h15.948
		c5.036,0,8.393,3.357,8.393,8.393C235.712,499.283,232.355,502.641,227.319,502.641z M178.637,502.641h-15.948
		c-5.036,0-8.393-3.357-8.393-8.393c0-5.036,3.357-8.393,8.393-8.393h15.948c5.036,0,8.393,3.357,8.393,8.393
		C187.03,499.283,183.673,502.641,178.637,502.641z M130.794,502.641h-16.787c-5.036,0-8.393-3.357-8.393-8.393
		c0-5.036,3.357-8.393,8.393-8.393h15.948c5.036,0,8.393,3.357,8.393,8.393C138.348,499.283,134.991,502.641,130.794,502.641z
		 M82.112,501.801c-0.839,0-1.679,0-2.518,0c-7.554-2.518-14.269-8.393-16.787-16.787c-1.679-4.197,0.839-9.233,5.875-10.072
		c5.036-0.839,9.233,0.839,10.911,5.875c0.839,2.518,2.518,5.036,5.875,5.875c4.197,1.679,6.715,5.875,5.875,10.911
		C88.827,499.283,85.469,501.801,82.112,501.801z M422.886,464.87c-5.036,0-8.393-3.357-8.393-8.393v-15.948
		c0-5.036,3.357-8.393,8.393-8.393s8.393,3.357,8.393,8.393v15.948C431.279,460.673,427.922,464.87,422.886,464.87z M70.361,458.995
		c-5.036,0-8.393-3.357-8.393-8.393v-15.948c0-5.036,3.357-8.393,8.393-8.393c5.036,0,8.393,3.357,8.393,8.393v15.948
		C78.755,454.798,75.397,458.995,70.361,458.995z M422.886,416.188c-5.036,0-8.393-3.357-8.393-8.393v-15.948
		c0-5.036,3.357-8.393,8.393-8.393s8.393,3.357,8.393,8.393v15.948C431.279,411.991,427.922,416.188,422.886,416.188z
		 M70.361,410.313c-5.036,0-8.393-3.357-8.393-8.393v-15.948c0-5.036,3.357-8.393,8.393-8.393c5.036,0,8.393,3.357,8.393,8.393
		v15.948C78.755,406.116,75.397,410.313,70.361,410.313z M422.886,367.506c-5.036,0-8.393-3.357-8.393-8.393v-15.948
		c0-5.036,3.357-8.393,8.393-8.393s8.393,3.357,8.393,8.393v15.948C431.279,364.149,427.922,367.506,422.886,367.506z
		 M70.361,361.631c-5.036,0-8.393-3.357-8.393-8.393V337.29c0-5.036,3.357-8.393,8.393-8.393c5.036,0,8.393,3.357,8.393,8.393
		v15.948C78.755,358.273,75.397,361.631,70.361,361.631z M422.886,318.824c-5.036,0-8.393-3.357-8.393-8.393v-15.948
		c0-5.036,3.357-8.393,8.393-8.393s8.393,3.357,8.393,8.393v15.948C431.279,315.467,427.922,318.824,422.886,318.824z
		 M70.361,312.949c-5.036,0-8.393-3.357-8.393-8.393v-15.948c0-5.036,3.357-8.393,8.393-8.393c5.036,0,8.393,3.357,8.393,8.393
		v15.948C78.755,309.591,75.397,312.949,70.361,312.949z M422.886,270.982c-5.036,0-8.393-3.357-8.393-8.393v-15.948
		c0-5.036,3.357-8.393,8.393-8.393s8.393,3.357,8.393,8.393v15.948C431.279,266.785,427.922,270.982,422.886,270.982z
		 M70.361,265.106c-5.036,0-8.393-3.357-8.393-8.393v-15.948c0-5.036,3.357-8.393,8.393-8.393c5.036,0,8.393,3.357,8.393,8.393
		v15.948C78.755,260.909,75.397,265.106,70.361,265.106z M422.886,222.3c-5.036,0-8.393-3.357-8.393-8.393v-15.948
		c0-5.036,3.357-8.393,8.393-8.393s8.393,3.357,8.393,8.393v15.948C431.279,218.103,427.922,222.3,422.886,222.3z M70.361,216.424
		c-5.036,0-8.393-3.357-8.393-8.393v-15.948c0-5.036,3.357-8.393,8.393-8.393c5.036,0,8.393,3.357,8.393,8.393v15.948
		C78.755,212.227,75.397,216.424,70.361,216.424z M422.886,173.618c-5.036,0-8.393-3.357-8.393-8.393v-15.948
		c0-5.036,3.357-8.393,8.393-8.393s8.393,3.357,8.393,8.393v15.948C431.279,170.26,427.922,173.618,422.886,173.618z
		 M70.361,167.742c-5.036,0-8.393-3.357-8.393-8.393v-15.948c0-5.036,3.357-8.393,8.393-8.393c5.036,0,8.393,3.357,8.393,8.393
		v15.948C78.755,163.545,75.397,167.742,70.361,167.742z M70.361,119.06c-5.036,0-8.393-3.357-8.393-8.393V94.719
		c0-5.036,3.357-8.393,8.393-8.393c5.036,0,8.393,3.357,8.393,8.393v15.948C78.755,115.703,75.397,119.06,70.361,119.06z
		 M70.361,70.378c-5.036,0-8.393-3.357-8.393-8.393V46.037c0-5.036,3.357-8.393,8.393-8.393c5.036,0,8.393,3.357,8.393,8.393v15.948
		C78.755,67.021,75.397,70.378,70.361,70.378z M73.719,22.536c-1.679,0-3.357,0-5.036-0.839c-3.357-2.518-4.197-7.554-1.679-11.751
		C71.201,3.231,78.755-0.966,87.148-0.966c5.036,0,8.393,3.357,8.393,8.393s-3.357,8.393-8.393,8.393l0,0
		c-2.518,0-5.036,1.679-6.715,3.357C78.755,21.696,76.237,22.536,73.719,22.536z M184.512,15.821h-15.948
		c-5.036,0-8.393-3.357-8.393-8.393s3.357-8.393,8.393-8.393h15.948c5.036,0,8.393,3.357,8.393,8.393S188.709,15.821,184.512,15.821
		z M135.83,15.821h-15.948c-5.036,0-8.393-3.357-8.393-8.393s3.357-8.393,8.393-8.393h15.948c5.036,0,8.393,3.357,8.393,8.393
		S140.866,15.821,135.83,15.821z"/>
</g>
<g>
</g>
<g>
</g>
<g>
</g>
<g>
</g>
<g>
</g>
<g>
</g>
<g>
</g>
<g>
</g>
<g>
</g>
<g>
</g>
<g>
</g>
<g>
</g>
<g>
</g>
<g>
</g>
<g>
</g>
</svg>
